inDegrees=no
num_controls=7
num_derivatives=13
num_iterations=87
num_multipliers=7
num_parameters=0
num_slacks=7
num_states=26
objective=0.454543
objective_accelerations=0.044492
objective_balance=0.000804
objective_effort=0.036406
objective_height=0.366744
objective_ligament=0.006098
solver_duration=977.872113
status=Solve_Succeeded
success=true
DataType=double
version=3
OpenSimVersion=4.5
endheader
time	/jointset/ground_pelvis/pelvis_tilt/value	/jointset/ground_pelvis/pelvis_tx/value	/jointset/ground_pelvis/pelvis_ty/value	/jointset/hip_r/hip_flexion_r/value	/jointset/hip_r/hip_adduction_r/value	/jointset/hip_r/hip_rotation_r/value	/jointset/back/lumbar_extension/value	/jointset/patellofemoral_r/patellar_flexion_r/value	/jointset/knee_r/knee_flexion_r/value	/jointset/knee_r/knee_adduction_r/value	/jointset/knee_r/knee_rotation_r/value	/jointset/ankle_r/ankle_angle_r/value	/jointset/subtalar_r/subtalar_angle_r/value	/jointset/ground_pelvis/pelvis_tilt/speed	/jointset/ground_pelvis/pelvis_tx/speed	/jointset/ground_pelvis/pelvis_ty/speed	/jointset/hip_r/hip_flexion_r/speed	/jointset/hip_r/hip_adduction_r/speed	/jointset/hip_r/hip_rotation_r/speed	/jointset/back/lumbar_extension/speed	/jointset/patellofemoral_r/patellar_flexion_r/speed	/jointset/knee_r/knee_flexion_r/speed	/jointset/knee_r/knee_adduction_r/speed	/jointset/knee_r/knee_rotation_r/speed	/jointset/ankle_r/ankle_angle_r/speed	/jointset/subtalar_r/subtalar_angle_r/speed	/forceset/tau_hip_flexion_r	/forceset/tau_hip_adduction_r	/forceset/tau_hip_rotation_r	/forceset/tau_knee_flexion_r	/forceset/tau_ankle_angle_r	/forceset/tau_subtalar_angle_r	/forceset/tau_lumbar_extension	lambda_cid13_p0	lambda_cid14_p0	lambda_cid14_p1	lambda_cid14_p2	lambda_cid14_p3	lambda_cid14_p4	lambda_cid14_p5	/jointset/ground_pelvis/pelvis_tilt/accel	/jointset/ground_pelvis/pelvis_tx/accel	/jointset/ground_pelvis/pelvis_ty/accel	/jointset/hip_r/hip_flexion_r/accel	/jointset/hip_r/hip_adduction_r/accel	/jointset/hip_r/hip_rotation_r/accel	/jointset/back/lumbar_extension/accel	/jointset/patellofemoral_r/patellar_flexion_r/accel	/jointset/knee_r/knee_flexion_r/accel	/jointset/knee_r/knee_adduction_r/accel	/jointset/knee_r/knee_rotation_r/accel	/jointset/ankle_r/ankle_angle_r/accel	/jointset/subtalar_r/subtalar_angle_r/accel	gamma_cid13_p0	gamma_cid14_p0	gamma_cid14_p1	gamma_cid14_p2	gamma_cid14_p3	gamma_cid14_p4	gamma_cid14_p5
1	-0.2094031509827088	-0.001995889246563918	0.6571555384496484	1.345334368524119	-0.2543441328694518	0.09703378394070562	-0.7853978646351564	1.473555563164356	1.473555563163689	0.0489680750496297	0.1745241574100289	0.4362664921282353	0.1409737562162753	0.07112451369897192	0.005273894841746397	0.01481423112364321	-0.1011414225183216	-0.001740211418948131	-0.006438800212391559	4.266149372559116e-05	-0.01721674447020681	-0.01721674447020732	0.0005898005462929832	-3.584671208827883e-05	0.01254942607483416	0.002608159787173277	-0.3177861972163683	0.02629116262678191	0.05075164766510831	-0.4601918194342908	-0.02906604001527196	-0.01852819541644351	0.34794755547547	-0.04054143493096759	-61.85923260149163	-22.17852220167357	7.727902440120098	9.103384127113346	-761.2432134787763	65.24386326105552	1.282334522071351	0.1371358806418098	1.674792548732279	-5.108708120775991	-0.07593354028341884	-1.528887144446008	0.001220950684585241	-4.803699089734385	-4.803699089734407	0.06802949835231686	-0.001829853797422517	-1.209203782050965	-0.6563661418783945	1.293294235324179e-10	-1.694971695812295e-09	-4.998197314830579e-09	1.051004606239636e-09	3.286469226407054e-09	-5.330718216014259e-09	-1.149110027131734e-08
1.01	-0.2086288457083077	-0.001936106223459059	0.6573872722494692	1.344068546915982	-0.2543652481495874	0.09689285565568698	-0.7853946431110723	1.473143430596099	1.473143430595971	0.04897707386267101	0.1745235236913729	0.43633182957441	0.1409673105866408	0.08369759912885097	0.006704512997326049	0.03153105173089049	-0.1520123360676702	-0.002485302678972152	-0.02174575917148412	0.0007982489630134437	-0.06521069363346839	-0.06521069363347097	0.001214080000054793	-8.686399313244427e-05	0.0005462465952347927	-0.003888709073559924	-0.3187151603616839	0.02637694811705138	0.05074389939008193	-0.4600793613686045	-0.0294750341029265	-0.01847381462432407	0.3491672434850774	-0.04053696514525656	-62.02447746748355	-22.17771894000344	7.720785035144809	8.90524061122956	-762.0162769971569	65.25044271707111	1.238954401615773	0.1492969671082165	1.6699032896199	-5.074698650773546	-0.0741651886575951	-1.531436827056718	0.142218490827468	-4.797381409534336	-4.797381409534678	0.06024577816370567	-0.006133961139876366	-1.191648042623037	-0.6450616502459435	-4.338567214653807e-10	-4.43445716413538e-09	-3.837591192256241e-09	-3.212631834103024e-09	8.45435955939037e-09	-9.758574670183644e-09	-1.558359834254754e-08
1.02	-0.2077299778099763	-0.001861362581979909	0.6577861295499426	1.342294333036597	-0.2543938879962839	0.09659889046999481	-0.7853779675431422	1.472251330820226	1.47225133082064	0.0489924391920908	0.1745225005407329	0.4362779806235059	0.1408961533899835	0.09603703848551655	0.008266018516604572	0.04823893125409284	-0.2028198767673874	-0.003245124730821031	-0.03704618034721211	0.00273347026336276	-0.1132101859932216	-0.1132101859932286	0.001863103824842768	-0.0001137331094545401	-0.01128785335270926	-0.01033415361730011	-0.3196441235070016	0.02646273360731394	0.05073615111510237	-0.4599669033029165	-0.02988402819058365	-0.01841943383221979	0.3503869314946828	-0.04053816220988532	-62.19734444193222	-22.17534348481116	7.710097015494738	8.715361007007052	-762.93076307996	65.25693737839521	1.235605307428624	0.163313353381607	1.673004331923294	-5.096033550849733	-0.07887969864839843	-1.527579587773101	0.2371477168967902	-4.804807729032722	-4.804807729033198	0.07297837255755552	0.002999779147002015	-1.175387875719865	-0.6460812784797892	-1.082927952286541e-09	-4.494306077572781e-09	-1.247203955518212e-09	-8.884472228427614e-09	7.933220741085801e-09	-1.256185944404204e-08	-1.594336842587512e-08
1.03	-0.2067090975431807	-0.001770418606554023	0.6583519422845179	1.340012787842905	-0.2544301494406703	0.09615201606176151	-0.7853361131625196	1.470879179431259	1.4708791794312	0.04901442421935424	0.174521299886611	0.4361063912756437	0.1407608016662897	0.1080766271755744	0.009937747559622043	0.06491400582846465	-0.253433585440443	-0.004004930429784756	-0.05232108867355303	0.00582976709103827	-0.1612238167448839	-0.1612238167448879	0.002539445192851349	-0.0001245364384509703	-0.02302657131200307	-0.01672815192567229	-0.3201007801194689	0.02652181406999849	0.05070938299350303	-0.4595771096740409	-0.03030506873862379	-0.01834303851070686	0.3511789609561742	-0.0405563158087421	-62.34457880974406	-22.15050430207524	7.686215745517214	8.634786821361528	-763.3769393516927	65.25503003874667	1.178777564981274	0.1713497958099114	1.663314458723178	-5.035703356996874	-0.07419716779865233	-1.526307668409207	0.3747248499031833	-4.800199139425521	-4.800199139424735	0.06579592249899259	-0.002844558859770332	-1.172597541261369	-0.634854675056193	-1.732875561534471e-09	-4.52681176085827e-09	1.357772884425577e-09	-1.457068205085407e-08	7.354030604910916e-09	-1.534856695585643e-08	-1.626504944810164e-08
